# xmcd
#
# Track frame offsets:
#	150
#	13339
#	29458
#
# Disc length: 621 seconds
#
# Revision: 1
# Processed by: cddbd v1.4PL0 Copyright (c) Steve Scherf et al.
# Submitted via: EasyCDDAExtractor 5.0.7
#
DISCID=1f026b03
DTITLE=C.C. Tenniston - Route 66
DYEAR=2003
DGENRE=Country
TTITLE0=Let 'Er Rip
TTITLE1=Broken Wing
TTITLE2=Unchained Melody
EXTD=
EXTT0=
EXTT1=
EXTT2=
PLAYORDER=
